<svg xmlns="http://www.w3.org/2000/svg" width="1262" height="597" viewBox="0 0 1262 597">
    <defs>
        <filter id="빼기_4" width="268" height="268" x="718" y="329" filterUnits="userSpaceOnUse">
            <feOffset dy="3"/>
            <feGaussianBlur result="blur" stdDeviation="3"/>
            <feFlood flood-opacity=".098"/>
            <feComposite in2="blur" operator="in"/>
            <feComposite in="SourceGraphic"/>
        </filter>
        <filter id="빼기_1" width="268" height="268" x="0" y="103" filterUnits="userSpaceOnUse">
            <feOffset dy="3"/>
            <feGaussianBlur result="blur-2" stdDeviation="3"/>
            <feFlood flood-opacity=".102"/>
            <feComposite in2="blur-2" operator="in"/>
            <feComposite in="SourceGraphic"/>
        </filter>
        <filter id="빼기_3" width="268" height="268" x="994" y="0" filterUnits="userSpaceOnUse">
            <feOffset dy="3"/>
            <feGaussianBlur result="blur-3" stdDeviation="3"/>
            <feFlood flood-opacity=".102"/>
            <feComposite in2="blur-3" operator="in"/>
            <feComposite in="SourceGraphic"/>
        </filter>
        <style>
            .cls-1{fill:#feedb4}
        </style>
    </defs>
    <g id="그룹_881">
        <g filter="url(#빼기_4)" transform="translate(-1 -6) translate(1 6)">
            <path id="빼기_4-2" d="M125 250a125.927 125.927 0 0 1-25.192-2.54 124.3 124.3 0 0 1-44.7-18.809 125.361 125.361 0 0 1-45.289-55 124.4 124.4 0 0 1-7.279-23.459 126.207 126.207 0 0 1 0-50.383 124.309 124.309 0 0 1 18.808-44.7 125.375 125.375 0 0 1 55-45.288 124.381 124.381 0 0 1 23.46-7.281 126.216 126.216 0 0 1 50.383 0 124.31 124.31 0 0 1 44.7 18.809 125.353 125.353 0 0 1 45.287 55 124.349 124.349 0 0 1 7.283 23.464 126.205 126.205 0 0 1 0 50.383 124.325 124.325 0 0 1-18.807 44.7 125.365 125.365 0 0 1-55 45.288 124.383 124.383 0 0 1-23.465 7.284A125.917 125.917 0 0 1 125 250zm0-213.235a87.824 87.824 0 0 0-49.333 15.069A88.5 88.5 0 0 0 43.7 90.655a88.116 88.116 0 0 0 8.136 83.678A88.489 88.489 0 0 0 90.655 206.3a88.123 88.123 0 0 0 83.678-8.135 88.488 88.488 0 0 0 31.967-38.82 88.122 88.122 0 0 0-8.135-83.678 88.484 88.484 0 0 0-38.82-31.967A87.681 87.681 0 0 0 125 36.765z" class="cls-1" transform="translate(727 335)"/>
        </g>
        <g filter="url(#빼기_1)" transform="translate(-1 -6) translate(1 6)">
            <path id="빼기_1-2" d="M125 250a125.927 125.927 0 0 1-25.192-2.54 124.3 124.3 0 0 1-44.7-18.809 125.361 125.361 0 0 1-45.289-55 124.4 124.4 0 0 1-7.279-23.459 126.207 126.207 0 0 1 0-50.383 124.309 124.309 0 0 1 18.808-44.7 125.375 125.375 0 0 1 55-45.288 124.381 124.381 0 0 1 23.46-7.281 126.216 126.216 0 0 1 50.383 0 124.31 124.31 0 0 1 44.7 18.809 125.353 125.353 0 0 1 45.287 55 124.349 124.349 0 0 1 7.283 23.464 126.205 126.205 0 0 1 0 50.383 124.325 124.325 0 0 1-18.807 44.7 125.365 125.365 0 0 1-55 45.288 124.383 124.383 0 0 1-23.465 7.284A125.917 125.917 0 0 1 125 250zm0-213.235a87.824 87.824 0 0 0-49.333 15.069A88.5 88.5 0 0 0 43.7 90.655a88.116 88.116 0 0 0 8.136 83.678A88.489 88.489 0 0 0 90.655 206.3a88.123 88.123 0 0 0 83.678-8.135 88.488 88.488 0 0 0 31.967-38.82 88.122 88.122 0 0 0-8.135-83.678 88.484 88.484 0 0 0-38.82-31.967A87.681 87.681 0 0 0 125 36.765z" class="cls-1" transform="translate(9 109)"/>
        </g>
        <g filter="url(#빼기_3)" transform="translate(-1 -6) translate(1 6)">
            <path id="빼기_3-2" d="M125 250a125.927 125.927 0 0 1-25.192-2.54 124.3 124.3 0 0 1-44.7-18.809 125.361 125.361 0 0 1-45.289-55 124.4 124.4 0 0 1-7.279-23.459 126.207 126.207 0 0 1 0-50.383 124.309 124.309 0 0 1 18.808-44.7 125.375 125.375 0 0 1 55-45.288 124.381 124.381 0 0 1 23.46-7.281 126.216 126.216 0 0 1 50.383 0 124.31 124.31 0 0 1 44.7 18.809 125.353 125.353 0 0 1 45.287 55 124.349 124.349 0 0 1 7.283 23.464 126.205 126.205 0 0 1 0 50.383 124.325 124.325 0 0 1-18.807 44.7 125.365 125.365 0 0 1-55 45.288 124.383 124.383 0 0 1-23.465 7.284A125.917 125.917 0 0 1 125 250zm0-213.235a87.824 87.824 0 0 0-49.333 15.069A88.5 88.5 0 0 0 43.7 90.655a88.116 88.116 0 0 0 8.136 83.678A88.489 88.489 0 0 0 90.655 206.3a88.123 88.123 0 0 0 83.678-8.135 88.488 88.488 0 0 0 31.967-38.82 88.122 88.122 0 0 0-8.135-83.678 88.484 88.484 0 0 0-38.82-31.967A87.681 87.681 0 0 0 125 36.765z" class="cls-1" transform="translate(1003 6)"/>
        </g>
    </g>
</svg>
