<svg xmlns="http://www.w3.org/2000/svg" width="658.647" height="658.647" viewBox="0 0 658.647 658.647">
    <defs>
        <filter id="2jpa83fcaa" width="658.647" height="658.647" x="0" y="0" filterUnits="userSpaceOnUse">
            <feOffset dy="3"/>
            <feGaussianBlur result="blur" stdDeviation="3"/>
            <feFlood flood-opacity=".102"/>
            <feComposite in2="blur" operator="in"/>
            <feComposite in="SourceGraphic"/>
        </filter>
    </defs>
    <g>
        <g filter="url(#2jpa83fcaa)" transform="translate(14.998 -1221) translate(-15 1221)">
            <path fill="#ffb700" d="M320.324 640.647a322.692 322.692 0 0 1-64.557-6.508 318.568 318.568 0 0 1-114.54-48.2A321.259 321.259 0 0 1 25.173 445.008 318.717 318.717 0 0 1 6.508 384.88a323.446 323.446 0 0 1 0-129.112 318.566 318.566 0 0 1 48.2-114.54A321.258 321.258 0 0 1 195.639 25.173a318.705 318.705 0 0 1 60.128-18.665 323.447 323.447 0 0 1 129.113 0 318.568 318.568 0 0 1 114.54 48.2 321.261 321.261 0 0 1 116.054 140.931 318.706 318.706 0 0 1 18.665 60.128 323.444 323.444 0 0 1 0 129.112 318.567 318.567 0 0 1-48.2 114.54 321.26 321.26 0 0 1-140.931 116.055 318.707 318.707 0 0 1-60.128 18.665 322.689 322.689 0 0 1-64.556 6.508zm.649-559.429a241.522 241.522 0 0 0-48.319 4.871 238.441 238.441 0 0 0-85.73 36.075 240.456 240.456 0 0 0-86.865 105.486 238.544 238.544 0 0 0-13.97 45 242.093 242.093 0 0 0 0 96.638 238.443 238.443 0 0 0 36.075 85.73 240.456 240.456 0 0 0 105.485 86.865 238.545 238.545 0 0 0 45 13.97 242.093 242.093 0 0 0 96.638 0 238.44 238.44 0 0 0 85.73-36.076 240.456 240.456 0 0 0 86.87-105.477 238.541 238.541 0 0 0 13.97-45 242.094 242.094 0 0 0 0-96.638 238.44 238.44 0 0 0-36.076-85.73A240.455 240.455 0 0 0 414.3 100.059a238.548 238.548 0 0 0-45-13.97 241.525 241.525 0 0 0-48.328-4.871z" transform="translate(9 6)"/>
        </g>
        <path fill="#feedb4" d="M320.973 640.648h-.648a322.677 322.677 0 0 1-64.556-6.509 318.576 318.576 0 0 1-114.54-48.2A321.229 321.229 0 0 1 25.174 445.006a318.543 318.543 0 0 1-18.665-60.127 323.394 323.394 0 0 1 0-129.112 318.582 318.582 0 0 1 48.2-114.54 321.255 321.255 0 0 1 140.93-116.055 318.782 318.782 0 0 1 60.129-18.665A322.693 322.693 0 0 1 320.325 0h.648v81.218h-.017a241.427 241.427 0 0 0-48.3 4.868 238.448 238.448 0 0 0-85.731 36.076A240.472 240.472 0 0 0 100.06 227.65a238.765 238.765 0 0 0-13.97 45 242.1 242.1 0 0 0 0 96.639 238.407 238.407 0 0 0 36.076 85.728 240.416 240.416 0 0 0 105.486 86.864 238.294 238.294 0 0 0 45 13.97 241.539 241.539 0 0 0 48.317 4.872v79.92z" transform="translate(14.998 -1221) translate(-6.001 1227.001)"/>
        <path fill="#ff9300" d="M195.827 461.153q2.191-3.034 4.282-6.129a239.687 239.687 0 0 0 22.106-40.724 238.494 238.494 0 0 0 13.97-45 241.519 241.519 0 0 0 4.871-48.319 241.52 241.52 0 0 0-4.871-48.319 238.494 238.494 0 0 0-13.97-45 239.525 239.525 0 0 0-22.106-40.726 241.5 241.5 0 0 0-29.275-35.482 241.5 241.5 0 0 0-35.483-29.278 239.846 239.846 0 0 0-40.726-22.1 238.392 238.392 0 0 0-45-13.97A241.553 241.553 0 0 0 1.3 81.218H0V0h.651a322.831 322.831 0 0 1 64.556 6.507 318.866 318.866 0 0 1 60.127 18.665A320.284 320.284 0 0 1 179.745 54.7a322.767 322.767 0 0 1 47.41 39.114 322.629 322.629 0 0 1 39.114 47.407 320.567 320.567 0 0 1 29.531 54.417 318.782 318.782 0 0 1 18.666 60.129 322.689 322.689 0 0 1 6.508 64.556 322.673 322.673 0 0 1-6.508 64.556 318.783 318.783 0 0 1-18.666 60.129 320.486 320.486 0 0 1-29.533 54.411q-1.334 1.975-2.7 3.932z" transform="translate(14.998 -1221) translate(313.673 1227)"/>
    </g>
</svg>
