<svg xmlns="http://www.w3.org/2000/svg" id="그룹_673" width="123.707" height="28.559" viewBox="0 0 123.707 28.559">
    <defs>
        <style>
            .cls-1{fill:#1a1311}
        </style>
    </defs>
    <path id="패스_420" d="M155.708 526.791a30 30 0 0 1 .37 3.957c0 1.525-.576 2.266-1.648 2.266-.948 0-1.278-.494-1.855-1.525-.948-1.814-2.266-3.709-5.152-3.709-2.349 0-3.832 1.359-3.832 3.214 0 2.143 2.6 2.761 5.275 3.833 3.792 1.442 6.553 3.008 6.553 7.582 0 8.037-7.13 10.8-12.858 10.8-6.511 0-9.726-3.05-9.726-5.893a2.358 2.358 0 0 1 2.349-2.637c1.442 0 2.1 1.031 3.173 2.349a6.213 6.213 0 0 0 4.946 2.885c2.555 0 4.368-1.319 4.368-3.751 0-2.514-2.6-3.173-5.564-4.286-3.379-1.236-6.882-2.885-6.882-7.335 0-5.687 5.234-9.726 12.116-9.726a9.856 9.856 0 0 1 5.11 1.277 2.161 2.161 0 0 1 1.731-.989c1.031-.003 1.36.617 1.526 1.688z" class="cls-1" transform="translate(-132.835 -524.689)"/>
    <path id="패스_421" d="M187.758 546.994c.536-1.2 1.03-1.732 2.019-1.732.618 0 1.154.288 1.154 1.031a9.517 9.517 0 0 1-.783 2.555l-1.813 4.491h-7.871l-.453.907c-.577 1.237-1.113 1.855-2.1 1.855a1.048 1.048 0 0 1-1.154-1.113 6.88 6.88 0 0 1 .783-2.6l1.772-4.533h8.036z" class="cls-1" transform="translate(-151.618 -533.435)"/>
    <path id="패스_422" d="M226.338 526.791a29.989 29.989 0 0 1 .371 3.957c0 1.525-.576 2.266-1.648 2.266-.948 0-1.277-.494-1.854-1.525-.948-1.814-2.266-3.709-5.152-3.709-2.349 0-3.833 1.359-3.833 3.214 0 2.143 2.6 2.761 5.275 3.833 3.792 1.442 6.553 3.008 6.553 7.582 0 8.037-7.13 10.8-12.857 10.8-6.511 0-9.726-3.05-9.726-5.893a2.358 2.358 0 0 1 2.349-2.637c1.443 0 2.1 1.031 3.174 2.349a6.213 6.213 0 0 0 4.946 2.885c2.555 0 4.368-1.319 4.368-3.751 0-2.514-2.6-3.173-5.564-4.286-3.379-1.236-6.882-2.885-6.882-7.335 0-5.687 5.234-9.726 12.116-9.726a9.856 9.856 0 0 1 5.11 1.277 2.161 2.161 0 0 1 1.731-.989c1.029-.003 1.358.617 1.523 1.688z" class="cls-1" transform="translate(-163.041 -524.689)"/>
    <path id="패스_423" d="M276.906 527.088a1.949 1.949 0 0 1-1.979 2.06h-.577l-2.843 20.565h.618a1.374 1.374 0 0 1 1.442 1.484 2.372 2.372 0 0 1-.783 1.773H261.74a2.076 2.076 0 0 1 1.566-3.257h.576l1.319-9.272h-8.119l-1.319 9.272h.618a1.354 1.354 0 0 1 1.442 1.484 2.234 2.234 0 0 1-.782 1.773H246a2.085 2.085 0 0 1-.412-1.2 1.949 1.949 0 0 1 1.978-2.061h.577l2.885-20.565h-.659a1.374 1.374 0 0 1-1.443-1.483 2.385 2.385 0 0 1 .825-1.772h11.044a1.843 1.843 0 0 1 .371 1.2 1.926 1.926 0 0 1-1.978 2.06h-.536l-1.2 8.078h8.16l1.113-8.078h-.618a1.311 1.311 0 0 1-1.4-1.442 2.764 2.764 0 0 1 .742-1.813h11.086a2.116 2.116 0 0 1 .371 1.194z" class="cls-1" transform="translate(-181.054 -525.151)"/>
    <path id="패스_424" d="M300.448 540.917c0-10.8 8.366-16.32 15.5-16.32 5.851 0 12.281 3.256 12.281 12.2 0 10.8-8.119 16.361-15.537 16.361-5.815-.002-12.244-3.258-12.244-12.241zm19.411-5.646c0-5.028-1.566-7.5-4.08-7.5-3.833 0-6.924 6.306-6.924 14.8 0 5.069 1.607 7.088 4.039 7.088 4.039-.005 6.965-6.146 6.965-14.388z" class="cls-1" transform="translate(-204.517 -524.597)"/>
</svg>
